<svg width="1113" height="906" viewBox="0 0 1113 906" fill="none" xmlns="http://www.w3.org/2000/svg">
<path d="M814.86 57.5124C884.481 94.6398 942.051 148.858 992.928 211.326C1043.8 273.794 1087.99 345.102 1104.72 424.661C1122.13 504.22 1112.09 592.618 1074.6 675.713C1037.11 758.218 972.176 835.42 885.15 874.315C798.125 913.21 689.008 913.8 598.636 886.691C507.594 859.582 434.626 804.186 342.915 767.647C251.873 731.109 141.417 712.84 77.1523 657.444C12.8874 602.047 -5.85656 508.934 1.50714 419.357C8.87083 330.369 42.3422 244.917 101.252 180.681C159.492 116.445 243.84 73.4241 328.187 43.9579C412.535 14.4917 496.213 -1.42001 579.222 0.347962C662.9 1.52661 744.57 20.9743 814.86 57.5124Z" fill="url(#paint0_linear_498_162)"/>
<defs>
<linearGradient id="paint0_linear_498_162" x1="556.5" y1="0.214844" x2="556.5" y2="905.495" gradientUnits="userSpaceOnUse">
<stop stop-color="#FF0066"/>
<stop offset="1" stop-color="#FF401F"/>
</linearGradient>
</defs>
</svg>
