<svg xmlns="http://www.w3.org/2000/svg" width="462" height="201" fill="none"><path fill="#FEFEFE" d="M42.729 0c-7.511 0-14.03.511-19.558 1.534-5.385 1.022-9.78 2.646-13.18 4.876-3.402 2.23-5.951 5.158-7.652 8.782C.78 18.722 0 23.044 0 28.155c0 3.623.282 6.967.849 10.034.567 2.973 1.49 5.715 2.765 8.224 1.417 2.416 3.331 4.644 5.74 6.689 2.41 1.95 5.386 3.716 8.929 5.295 3.543 1.487 7.863 2.883 12.965 4.184 2.551.743 4.75 1.533 6.592 2.37 1.984.836 3.613 1.718 4.889 2.647 1.275.837 2.195 1.811 2.762 2.927.709 1.021 1.207 2.182 1.49 3.483.426 1.3.636 2.742.636 4.322 0 1.3-.142 2.416-.425 3.346-.284.93-.78 1.67-1.488 2.228-.567.557-1.344.976-2.336 1.255-.992.28-2.197.42-3.614.42-2.126 0-3.758-.281-4.892-.839-1.134-.65-1.982-1.625-2.55-2.926-.424-1.394-.638-3.206-.638-5.436v-3.205c0-1.208.071-2.509.213-3.903-1.276.088-2.905.14-4.889.14h-6.166c-3.826 0-7.512-.043-11.055-.14-3.401-.088-6.448-.23-9.141-.416 0 1.486-.068 2.925-.21 4.319-.142 1.3-.213 2.65-.213 4.043v4.04c0 3.625.353 6.83 1.062 9.618.85 2.788 2.197 5.25 4.04 7.386 1.984 2.045 4.604 3.764 7.863 5.158 3.26 1.301 7.301 2.276 12.12 2.926 4.96.651 10.841.977 17.644.977 6.235 0 11.763-.371 16.582-1.114 4.818-.65 8.857-1.721 12.116-3.208 3.402-1.486 6.093-3.344 8.077-5.574a19.54 19.54 0 0 0 4.466-8.084c.992-3.159 1.487-6.784 1.487-10.872 0-4.832-.638-9.013-1.913-12.544-1.134-3.624-2.977-6.734-5.527-9.336-2.41-2.602-5.6-4.88-9.568-6.832-3.968-2.044-8.784-3.901-14.453-5.574-2.834-.929-5.243-1.86-7.228-2.788-1.984-.93-3.616-1.857-4.891-2.786-1.134-1.022-2.054-2.093-2.762-3.208a11.267 11.267 0 0 1-1.488-3.483 34.75 34.75 0 0 1-.213-4.04c0-1.116.071-2.094.213-2.93.283-.836.708-1.533 1.275-2.09.708-.558 1.56-.974 2.552-1.253.992-.279 2.125-.419 3.401-.419 1.417 0 2.622.186 3.614.557 1.134.279 1.982.743 2.55 1.393.708.65 1.203 1.488 1.487 2.51.425.929.639 2.137.639 3.624 0 1.301-.072 2.602-.213 3.903v4.181H71.64c2.41 0 4.677.044 6.802.137 2.268.088 4.182.186 5.74.28.143-1.394.214-2.74.214-4.041v-3.903c.142-1.208.213-2.368.213-3.483 0-3.903-.428-7.294-1.278-10.175-.709-2.973-2.053-5.482-4.037-7.527-1.842-2.044-4.394-3.716-7.654-5.017-3.117-1.3-7.088-2.23-11.906-2.788C55.057.279 49.39 0 42.729 0Zm47.053 1.393c.142 5.11.284 10.455.426 16.03.142 5.482.213 11.984.213 19.51 0 3.346-.071 7.249-.213 11.709v27.04c0 4.46.424 8.408 1.275 11.846.992 3.438 2.552 6.411 4.678 8.92 2.126 2.416 4.96 4.461 8.503 6.134 3.685 1.58 8.147 2.74 13.391 3.483 5.244.837 11.481 1.255 18.709 1.255 7.369 0 13.675-.418 18.918-1.255 5.244-.743 9.638-1.903 13.181-3.483 3.543-1.673 6.377-3.718 8.503-6.134 2.126-2.509 3.615-5.482 4.466-8.92.992-3.438 1.487-7.386 1.487-11.846V62.3c0-4.739-.071-9.291-.213-13.658V36.934c0-7.527.071-14.029.213-19.511.143-5.575.284-10.92.426-16.03h-38.692v22.859c.143 4.181.213 8.363.213 12.544.142 4.181.213 8.315.213 12.403v21.745c0 1.858-.285 3.39-.852 4.597-.425 1.208-1.202 2.09-2.336 2.648-1.134.557-2.623.839-4.466.839-1.984 0-3.613-.282-4.888-.839-1.134-.557-1.986-1.44-2.553-2.647-.566-1.209-.848-2.74-.848-4.598V49.199c.142-4.088.213-8.222.213-12.403.142-4.181.213-8.318.213-12.406V12.265c.142-3.902.213-7.527.213-10.872H89.782Zm101.263 0c.142 7.34.213 15.146.213 23.416.142 8.177.213 17.793.213 28.85 0 7.433-.071 14.171-.213 20.211v16.725c0 5.204-.071 10.315-.213 15.333h39.541c-.567-5.018-.992-10.826-1.275-17.423-.061-1.449-.083-3.233-.138-4.739h8.641c6.802 0 12.683-.374 17.644-1.117 4.96-.836 9.07-2.182 12.329-4.04 3.26-1.859 5.812-4.413 7.654-7.665 1.984-3.252 3.328-7.296 4.037-12.128.85-4.924 1.277-10.825 1.277-17.701 0-8.177-.78-14.867-2.339-20.07-1.417-5.297-3.755-9.338-7.015-12.125-3.118-2.88-7.227-4.83-12.329-5.853-4.961-1.115-10.984-1.674-18.07-1.674h-49.957Zm94.248 0v11.01a326.4 326.4 0 0 1 .213 12.127c.142 4.182.21 8.689.21 13.52V53.66c0 7.433-.068 14.216-.21 20.349 0 6.04-.071 11.662-.213 16.866v15.054h75.254c-.142-2.045-.213-4.416-.213-7.111V82.79c0-2.788.071-5.112.213-6.97-2.834 0-5.742.044-8.718.14H342.9c-2.834 0-5.668.045-8.502.14h-10.416V63.416h4.253c2.834 0 5.596.044 8.289.139 2.693 0 5.316.044 7.867.14h7.651c2.551 0 4.889.045 7.015.138V47.387c0-2.973.071-5.434.213-7.386-2.268.088-4.677.186-7.228.28h-7.651c-2.551 0-5.174.043-7.867.14h-12.542V28.294h2.126c2.551 0 5.171.044 7.864.14h8.718c2.977 0 5.953.044 8.929.138h8.928a220.622 220.622 0 0 1-.426-6.41V7.527c.143-2.415.285-4.461.426-6.134h-75.254Zm81.702 0c.284 7.526.426 15.377.426 23.554V73.87c0 5.947-.071 11.522-.213 16.725 0 5.204-.071 10.315-.213 15.333h39.541c-.567-4.739-.991-10.41-1.275-17.007-.226-5.328-.373-11.28-.509-17.314.411-.055.82-.11 1.148-.11h4.463c1.275 0 2.409.186 3.401.557.992.372 1.772 1.069 2.339 2.091.709 1.022 1.275 2.553 1.701 4.598.566 2.044 1.062 4.787 1.487 8.225.425 3.344.85 7.478 1.275 12.403.283 1.672.639 3.021 1.064 4.043.567.93 1.277 1.578 2.127 1.95.992.371 2.336.56 4.037.56h33.8c-.283-1.765-.708-3.951-1.275-6.553-.425-2.695-.849-5.434-1.274-8.222-.425-2.88-.85-5.527-1.275-7.943-.709-4.181-1.913-7.528-3.614-10.037-1.559-2.509-3.758-4.414-6.592-5.715-2.834-1.393-6.52-2.32-11.055-2.785-.64-.077-1.443-.138-2.123-.212V63.36c1.421-.166 2.97-.287 4.25-.502 4.96-.93 8.859-2.512 11.693-4.742 2.976-2.323 5.101-5.574 6.376-9.755 1.418-4.274 2.127-9.709 2.127-16.306 0-6.132-.852-11.199-2.552-15.194-1.559-3.996-4.037-7.106-7.438-9.336-3.26-2.323-7.441-3.905-12.543-4.742-4.96-.929-10.773-1.392-17.434-1.392l-51.87.002Zm43.794 21.604c1.842 0 3.4.185 4.675.557 1.276.372 2.27 1.069 2.979 2.09.85 1.023 1.488 2.51 1.913 4.46.425 1.952.636 4.461.636 7.527 0 3.903-.353 6.969-1.062 9.199-.567 2.137-1.561 3.671-2.978 4.6-1.276.837-3.115 1.255-5.524 1.255a31.64 31.64 0 0 0-2.766-.14h-4.29c-.058-3.37-.114-6.557-.172-10.034V23.244c.737-.055 1.469-.109 2.123-.109h2.552c.851-.093 1.489-.138 1.914-.138Zm-179.778.416h2.124c1.984 0 3.687.234 5.104.698 1.559.465 2.764 1.395 3.614 2.789.992 1.3 1.699 3.25 2.124 5.852.425 2.602.639 6.086.639 10.453 0 3.903-.214 7.11-.639 9.618-.284 2.416-.85 4.321-1.701 5.715-.85 1.3-2.055 2.23-3.614 2.788-1.559.465-3.541.695-5.95.695h-3.614c-.134-.033-.319-.022-.466-.044-.094-6.555-.173-13.198-.173-20.306V23.54a29.83 29.83 0 0 1 2.552-.128Zm-34.165 88.097c-5.403 0-10.092.423-14.068 1.272-3.874.849-7.034 2.2-9.481 4.052-2.446 1.852-4.283 4.282-5.507 7.292-1.121 2.932-1.68 6.522-1.68 10.766 0 3.01.202 5.787.61 8.334.408 2.469 1.071 4.745 1.988 6.829 1.02 2.006 2.396 3.859 4.129 5.557 1.733 1.62 3.874 3.084 6.422 4.396 2.549 1.235 5.659 2.392 9.329 3.472 1.835.618 3.416 1.276 4.742 1.97 1.427.695 2.598 1.428 3.516 2.2.917.695 1.58 1.504 1.988 2.43.51.849.866 1.814 1.07 2.894.306 1.081.461 2.275.461 3.587 0 1.08-.105 2.005-.308 2.777-.204.772-.561 1.389-1.071 1.852-.407.463-.966.811-1.68 1.043-.713.232-1.582.348-2.601.348-1.529 0-2.701-.232-3.516-.695-.816-.54-1.428-1.349-1.836-2.429-.306-1.158-.457-2.663-.457-4.515v-2.662c0-1.003.05-2.085.152-3.242-.917.077-2.092.115-3.519.115h-4.434c-2.752 0-5.401-.033-7.95-.115a140.303 140.303 0 0 1-6.578-.347c0 1.234-.051 2.432-.152 3.589-.102 1.08-.153 2.2-.153 3.357v3.357c0 3.01.256 5.672.766 7.987.611 2.315 1.578 4.359 2.903 6.134 1.427 1.697 3.315 3.124 5.66 4.282 2.345 1.08 5.249 1.892 8.715 2.432 3.568.539 7.799.81 12.692.81 4.486 0 8.464-.31 11.93-.928 3.466-.539 6.371-1.427 8.715-2.662 2.447-1.234 4.385-2.777 5.813-4.629 1.529-1.929 2.599-4.168 3.211-6.714.713-2.624 1.07-5.634 1.07-9.029 0-4.013-.461-7.483-1.378-10.416-.816-3.009-2.139-5.596-3.974-7.756-1.733-2.161-4.028-4.052-6.882-5.672-2.855-1.698-6.321-3.24-10.399-4.629-2.039-.772-3.772-1.543-5.2-2.315-1.427-.771-2.598-1.543-3.516-2.315a12.713 12.713 0 0 1-1.988-2.662 10.174 10.174 0 0 1-1.07-2.894 33.437 33.437 0 0 1-.153-3.357c0-.927.051-1.736.153-2.43.203-.695.51-1.274.917-1.737a4.977 4.977 0 0 1 1.833-1.043c.714-.232 1.531-.347 2.449-.347 1.019 0 1.885.156 2.598.464.816.232 1.428.618 1.836 1.158.51.539.866 1.233 1.07 2.082.306.771.458 1.775.458 3.009 0 1.08-.051 2.162-.153 3.242v3.472h13.305c1.733 0 3.365.033 4.895.115 1.631.077 3.007.155 4.129.233.101-1.158.152-2.277.152-3.357v-3.243c.102-1.003.153-1.965.153-2.891 0-3.241-.307-6.06-.918-8.452-.51-2.469-1.479-4.551-2.906-6.249-1.326-1.698-3.16-3.087-5.505-4.167-2.243-1.08-5.097-1.851-8.563-2.315-3.364-.462-7.443-.695-12.234-.695Zm66.251 0c-5.403 0-10.092.423-14.068 1.272-3.874.849-7.037 2.2-9.483 4.052-2.447 1.852-4.281 4.282-5.505 7.292-1.121 2.932-1.68 6.522-1.68 10.766 0 3.01.202 5.787.61 8.334.408 2.469 1.071 4.745 1.988 6.829 1.02 2.006 2.396 3.859 4.129 5.557 1.733 1.62 3.874 3.084 6.422 4.396 2.549 1.235 5.659 2.392 9.329 3.472 1.835.618 3.417 1.276 4.742 1.97 1.427.695 2.598 1.428 3.516 2.2.917.695 1.58 1.504 1.988 2.43.51.849.867 1.814 1.071 2.894.305 1.081.457 2.275.457 3.587 0 1.08-.102 2.005-.305 2.777-.204.772-.561 1.389-1.07 1.852-.408.463-.97.811-1.684 1.043-.713.232-1.578.348-2.598.348-1.529 0-2.7-.232-3.516-.695-.816-.54-1.428-1.349-1.836-2.429-.306-1.158-.46-2.663-.46-4.515v-2.662c0-1.003.051-2.085.152-3.242-.917.077-2.089.115-3.516.115h-4.434c-2.752 0-5.404-.033-7.953-.115a140.159 140.159 0 0 1-6.575-.347c0 1.234-.05 2.432-.152 3.589-.102 1.08-.153 2.2-.153 3.357v3.357c0 3.01.253 5.672.763 7.987.611 2.315 1.581 4.359 2.906 6.134 1.427 1.697 3.315 3.124 5.66 4.282 2.345 1.08 5.249 1.892 8.715 2.432 3.568.539 7.799.81 12.692.81 4.486 0 8.461-.31 11.927-.928 3.466-.539 6.374-1.427 8.718-2.662 2.447-1.234 4.382-2.777 5.81-4.629 1.529-1.929 2.599-4.168 3.211-6.714.714-2.624 1.07-5.634 1.07-9.029 0-4.013-.458-7.483-1.375-10.416-.816-3.009-2.142-5.596-3.977-7.756-1.733-2.161-4.025-4.052-6.879-5.672-2.855-1.698-6.321-3.24-10.399-4.629-2.039-.772-3.772-1.543-5.2-2.315-1.427-.771-2.598-1.543-3.516-2.315a12.713 12.713 0 0 1-1.988-2.662 10.174 10.174 0 0 1-1.07-2.894 33.38 33.38 0 0 1-.156-3.357c0-.927.054-1.736.156-2.43.203-.695.507-1.274.915-1.737a4.977 4.977 0 0 1 1.835-1.043c.714-.232 1.532-.347 2.449-.347 1.019 0 1.885.156 2.598.464.816.232 1.428.618 1.836 1.158.51.539.866 1.233 1.07 2.082.306.771.458 1.775.458 3.009 0 1.08-.051 2.162-.153 3.242v3.472h13.305c1.733 0 3.363.033 4.892.115 1.631.077 3.007.155 4.129.233.101-1.158.155-2.277.155-3.357v-3.243c.102-1.003.153-1.965.153-2.891 0-3.241-.307-6.06-.918-8.452-.51-2.469-1.479-4.551-2.906-6.249-1.326-1.698-3.16-3.087-5.505-4.167-2.243-1.08-5.097-1.851-8.563-2.315-3.364-.462-7.443-.695-12.234-.695ZM.578 112.668c0 5.71.051 11.999.153 18.867.101 6.791.152 14.933.152 24.424 0 9.183-.05 17.168-.152 23.959S.528 193.23.426 199.481h23.853c0-2.547-.05-4.939-.152-7.177-.102-2.315-.203-4.553-.305-6.714 0-2.238-.051-4.514-.153-6.829v-7.524c0-2.624-.101-5.286-.305-7.986a244.054 244.054 0 0 0-.46-8.452c-.118-1.657-.181-3.355-.265-5.037l.688-.077c.265 1.398.557 2.755.8 4.187.611 3.01 1.173 5.866 1.683 8.567.612 2.7 1.174 4.977 1.683 6.829.306 1.697.713 3.55 1.223 5.556.51 1.93 1.018 3.933 1.528 6.017a685.763 685.763 0 0 1 1.836 6.366 142.546 142.546 0 0 1 1.683 6.252 80.674 80.674 0 0 1 1.528 6.019H46.76c.51-1.852 1.018-3.78 1.528-5.786l1.53-6.252c.612-2.084 1.171-4.168 1.681-6.252a80.517 80.517 0 0 0 1.53-6.019c.51-2.006.968-3.897 1.376-5.672.408-1.775.869-3.935 1.378-6.481.612-2.547 1.171-5.287 1.68-8.219.347-1.704.64-3.367.953-5.046l.794.088a445.5 445.5 0 0 1-.676 10.516 204.984 204.984 0 0 0-.305 10.767c0 2.7-.05 5.209-.152 7.523-.102 2.316-.206 4.592-.308 6.83 0 2.16-.051 4.399-.153 6.714a161.449 161.449 0 0 0-.152 7.291H84.53a601.023 601.023 0 0 1-.305-19.562v-48.384c.102-6.867.203-13.157.305-18.867H51.654a71.624 71.624 0 0 1-.917 5.902 289.34 289.34 0 0 1-1.379 6.599 250.264 250.264 0 0 1-1.375 7.176l-1.528 7.409c-.204 1.93-.46 4.165-.765 6.712-.306 2.546-.663 5.17-1.07 7.871-.125.831-.213 1.521-.328 2.315h-.777c-.103-.761-.15-1.396-.27-2.197a1186.96 1186.96 0 0 0-.919-7.872c-.203-2.623-.46-4.899-.765-6.829l-1.528-7.409c-.51-2.469-.97-4.861-1.378-7.176a354.942 354.942 0 0 0-1.223-6.599 381.222 381.222 0 0 1-1.07-5.902l-35.784.001Zm102.034 0c-.204 1.543-.51 3.894-.918 7.058a957.83 957.83 0 0 1-1.53 10.999c-.51 4.244-1.12 8.834-1.833 13.773a1420.2 1420.2 0 0 1-2.296 15.048 623.161 623.161 0 0 1-2.293 15.048 605.305 605.305 0 0 1-2.141 13.773 471.388 471.388 0 0 1-1.989 11.114h27.986c0-2.007.101-4.669.305-7.987.154-2.572.365-5.622.578-8.681h12.899c.038.587.098 1.281.132 1.852.204 3.318.308 6.25.308 8.796.102 2.547.203 4.553.305 6.02h30.736c-.611-3.164-1.325-6.87-2.141-11.114-.713-4.321-1.477-8.911-2.293-13.773a982.235 982.235 0 0 0-2.293-15.048 1567.48 1567.48 0 0 0-2.446-15.048c-.714-4.939-1.376-9.529-1.988-13.773a560.484 560.484 0 0 0-1.683-10.999c-.408-3.086-.714-5.438-.918-7.058h-46.487Zm197.68 0c.102 3.009.153 6.094.153 9.258v10.071c.102 3.473.152 7.216.152 11.229v25.811c0 3.936-.05 7.641-.152 11.114v10.068c0 3.164-.051 6.252-.153 9.262h29.361c0-3.01-.051-6.098-.152-9.262 0-3.241-.051-6.596-.153-10.068v-48.269c.102-3.472.153-6.792.153-9.956.101-3.164.152-6.249.152-9.258h-29.361Zm34.29 0c.51 3.009 1.072 6.636 1.683 10.881l1.988 13.54c.816 4.862 1.53 9.878 2.141 15.048a846.59 846.59 0 0 1 1.988 15.166 4809.72 4809.72 0 0 1 1.986 13.887c.611 4.245 1.123 7.95 1.531 11.114.407 3.164.714 5.556.917 7.177 1.632-.077 4.23-.116 7.798-.116 3.568-.077 8.36-.117 14.375-.117 2.957 0 5.76.044 8.411.117 2.752 0 5.25.033 7.492.116h5.813c.204-1.775.56-4.594 1.07-8.452a734.296 734.296 0 0 0 1.988-13.773 5397.95 5397.95 0 0 1 2.294-16.9c.815-6.019 1.63-11.96 2.445-17.825.816-5.942 1.58-11.497 2.294-16.668.815-5.17 1.529-9.569 2.14-13.195h-27.524c0 1.466-.102 3.548-.305 6.248-.102 2.624-.307 5.712-.613 9.262-.204 3.472-.46 7.216-.766 11.228a553.516 553.516 0 0 1-1.07 12.039c-.408 4.09-.815 8.062-1.223 11.92a488.707 488.707 0 0 0-.918 7.41 965.084 965.084 0 0 1-.61 7.523c-.014.177-.03.289-.046.463h-1.134l-.043-.347c-.204-2.47-.46-5.015-.766-7.639a152.54 152.54 0 0 0-.765-7.524c-.306-3.164-.612-6.443-.918-9.839a350.912 350.912 0 0 1-.762-10.071 1632.09 1632.09 0 0 0-.613-9.724c-.204-3.086-.409-5.98-.613-8.681a652.54 652.54 0 0 0-.305-7.176c-.102-2.084-.153-3.78-.153-5.092h-29.207Zm73.286 0v9.143c.102 3.164.153 6.522.153 10.071.101 3.473.152 7.213.152 11.226v12.966c0 6.173-.051 11.807-.152 16.9 0 5.016-.051 9.684-.153 14.006v12.501H462a99.862 99.862 0 0 1-.153-5.905v-13.31c0-2.315.051-4.244.153-5.787-2.039 0-4.129.033-6.27.116h-6.422c-2.039 0-4.078.032-6.117.114h-7.493v-10.534h3.059c2.039 0 4.027.044 5.964.118 1.937 0 3.822.033 5.657.114h5.505c1.835 0 3.517.033 5.047.116v-13.658c0-2.47.05-4.514.152-6.135-1.631.077-3.364.153-5.199.23h-5.505c-1.835 0-3.72.044-5.657.118h-9.023v-10.071h1.531c1.835 0 3.72.033 5.657.114h6.269c2.141 0 4.282.044 6.423.117H462a212.536 212.536 0 0 1-.305-5.327v-12.153c.102-2.006.203-3.702.305-5.091l-54.132.001Zm-283.296 11.69h1.039c.031.319.061.47.092.81.203 2.238.406 4.514.61 6.829.305 2.315.662 4.4 1.07 6.252.408 3.627.818 7.483 1.226 11.573.509 4.013.917 8.064 1.222 12.154.083.834.112 1.607.187 2.432h-9.667c-.134-.006-.278-.004-.412-.009a686.63 686.63 0 0 1 1.174-12.262c.612-4.862 1.173-9.489 1.683-13.888.306-1.852.612-3.937.918-6.252.306-2.392.562-4.668.765-6.829.047-.328.053-.499.093-.81Z"/></svg>