<svg width="221" height="103" viewBox="0 0 221 103" fill="none" xmlns="http://www.w3.org/2000/svg">
<path d="M18.2144 56.6827C15.9859 56.6827 13.663 56.5699 11.2457 56.3443C8.8284 56.1562 6.97765 55.9495 5.69345 55.7239L3.76716 55.4418L4.50368 37.7884L14.1352 38.0704C14.7395 37.7696 15.0416 37.3936 15.0416 36.9424C15.0416 36.5288 14.7584 36.134 14.1918 35.758C14.1163 35.7204 13.9841 35.6452 13.7952 35.5324C5.75011 30.3436 1.72755 25.1735 1.72755 20.0222C1.72755 19.9846 1.72755 19.947 1.72755 19.9094C1.76532 18.2174 2.01083 16.5254 2.46408 14.8334C2.91732 13.1414 3.7105 11.4117 4.84362 9.64451C6.0145 7.83969 7.44978 6.26047 9.14945 4.90686C10.8491 3.51564 13.0587 2.38763 15.7782 1.52282C18.5354 0.658008 21.6137 0.225603 25.0131 0.225603C27.9591 0.225603 30.5464 0.338404 32.7749 0.564006C35.0411 0.752008 36.5519 0.94001 37.3073 1.12801L38.4405 1.46641L38.6671 21.6579C37.9872 21.5826 37.2318 21.545 36.4009 21.545C32.5105 21.545 30.5464 22.5979 30.5087 24.7035C30.5087 25.2299 30.7919 25.7187 31.3585 26.1699C31.925 26.6211 32.6238 27.0347 33.4548 27.4107C34.3235 27.7867 35.2489 28.2943 36.2309 28.9335C37.2129 29.5351 38.1194 30.212 38.9504 30.964C39.8191 31.716 40.5367 32.75 41.1033 34.066C41.6698 35.382 41.9531 36.886 41.9531 38.578C41.9531 38.6532 41.9531 38.7284 41.9531 38.8036C41.9531 40.2325 41.7265 41.7177 41.2732 43.2593C40.82 44.7633 40.0079 46.3237 38.837 47.9406C37.7039 49.595 36.2687 51.0426 34.5312 52.2834C32.8315 53.5618 30.5653 54.6146 27.7325 55.4418C24.8997 56.2691 21.727 56.6827 18.2144 56.6827Z" fill="white"/>
<path d="M42.2368 0.507606L60.8199 0.620406C60.6688 3.62844 60.5933 7.01248 60.5933 10.7725C60.5933 25.8503 62.0286 33.3892 64.8991 33.3892C67.3164 33.3892 68.5251 27.8619 68.5251 16.8074C68.5251 14.3634 68.4495 11.7689 68.2985 9.0241C68.1852 6.24167 68.0718 4.07965 67.9585 2.53803L67.7886 0.225603L87.1648 1.01521L88.8078 22.3347C88.8078 25.1547 88.7701 27.4107 88.6945 29.1027C88.6568 30.7948 88.4868 32.9944 88.1846 35.7016C87.9202 38.4088 87.5048 40.6085 86.9382 42.3005C86.3716 43.9925 85.5218 45.8537 84.3887 47.8842C83.2933 49.9146 81.9525 51.4938 80.3661 52.6218C78.8175 53.7874 76.8346 54.765 74.4173 55.5546C72 56.3443 69.2427 56.7391 66.1455 56.7391C66.1078 56.7391 66.07 56.7391 66.0322 56.7391C63.0106 56.7391 60.2534 56.3255 57.7605 55.4982C55.3054 54.671 53.2469 53.5994 51.585 52.2834C49.9609 50.9674 48.5256 49.3506 47.2792 47.4329C46.0705 45.5529 45.1263 43.6917 44.4464 41.8493C43.7665 40.0069 43.2189 37.9764 42.8034 35.758C42.3879 33.5396 42.1235 31.6032 42.0102 29.9487C41.8969 28.2943 41.8402 26.5835 41.8402 24.8163L42.2368 0.507606Z" fill="white"/>
<path d="M133.098 21.8271C133.061 24.7599 132.551 27.5611 131.569 30.2307C130.587 32.9004 129.303 35.2128 127.716 37.168C126.13 39.0857 124.336 40.7777 122.334 42.2441C120.37 43.6729 118.349 44.7445 116.272 45.4589C114.194 46.1733 112.211 46.5305 110.323 46.5305L109.983 56.5135L89.8701 56.2879L89.6435 0.902409L111.399 0C111.475 0 111.588 0 111.739 0C112.344 0 113.08 0.0563999 113.949 0.1692C114.818 0.282002 115.951 0.526405 117.348 0.902409C118.746 1.27841 120.124 1.78602 121.484 2.42523C122.844 3.02683 124.241 3.89164 125.677 5.01966C127.112 6.11007 128.358 7.38848 129.416 8.8549C130.511 10.2837 131.399 12.1073 132.079 14.3258C132.759 16.5066 133.098 18.913 133.098 21.545C133.098 21.6579 133.098 21.7519 133.098 21.8271ZM108.34 31.528C108.718 31.5656 109.19 31.5844 109.756 31.5844C110.436 31.5844 111.078 31.5468 111.683 31.4716C112.325 31.3588 113.005 31.152 113.722 30.8512C114.44 30.5504 115.006 30.0803 115.422 29.4411C115.875 28.7643 116.102 27.9371 116.102 26.9595C116.102 26.9595 116.102 26.9407 116.102 26.9031C116.102 25.9631 115.894 25.1735 115.479 24.5343C115.101 23.8951 114.553 23.4439 113.835 23.1807C113.156 22.8799 112.495 22.6731 111.853 22.5603C111.248 22.4475 110.606 22.3911 109.926 22.3911L108.17 22.5039L108.34 31.528Z" fill="white"/>
<path d="M173.62 39.0857L172.43 56.6827H134.471L133.961 0.225603H171.524L171.694 19.007L162.006 19.2326L162.062 22.7859H170.221L170.674 35.9272L161.666 36.1528L161.609 38.9165L173.62 39.0857Z" fill="white"/>
<path d="M174.688 56.2879L174.461 0.902409L196.274 0C196.576 0 196.972 0.0188 197.463 0.0563999C197.992 0.0939999 198.993 0.244402 200.466 0.507606C201.977 0.770808 203.412 1.14681 204.772 1.63562C206.132 2.12442 207.642 2.87643 209.304 3.89165C210.966 4.90686 212.383 6.11007 213.554 7.50129C214.762 8.8925 215.763 10.7161 216.556 12.9722C217.387 15.2282 217.803 17.7286 217.803 20.4734C217.803 20.5862 217.803 20.699 217.803 20.8118C217.765 23.0679 217.538 25.1923 217.123 27.1851C216.745 29.1779 216.273 30.7948 215.706 32.0356C215.178 33.2764 214.63 34.3668 214.063 35.3068C213.497 36.2092 213.025 36.8484 212.647 37.2244L212.08 37.7884C214.158 41.3605 215.688 44.7633 216.67 47.997C217.123 49.4258 217.482 50.8734 217.746 52.3398C218.01 53.8062 218.162 54.9154 218.199 55.6674L218.256 56.7955L198.936 56.5699C199.05 55.9307 199.106 55.1598 199.106 54.2574C199.106 50.3094 197.784 47.7338 195.14 46.5305L194.801 56.5135L174.688 56.2879ZM193.157 31.528C193.535 31.5656 194.007 31.5844 194.574 31.5844C195.254 31.5844 195.896 31.5468 196.5 31.4716C197.142 31.3588 197.822 31.152 198.54 30.8512C199.257 30.5504 199.824 30.0803 200.239 29.4411C200.693 28.7643 200.919 27.9371 200.919 26.9595C200.919 26.9595 200.919 26.9407 200.919 26.9031C200.919 25.9631 200.712 25.1735 200.296 24.5343C199.918 23.8951 199.371 23.4439 198.653 23.1807C197.973 22.8799 197.312 22.6731 196.67 22.5603C196.066 22.4475 195.424 22.3911 194.744 22.3911L192.988 22.5039L193.157 31.528Z" fill="white"/>
<path d="M0 102.791L0.0838505 61.2218L17.9859 61.1383L20.7111 71.7811L23.1847 61.2218L39.9547 61.1383L40.0386 102.875L26.9998 102.917L27.0837 92.1485L24.4005 102.666L16.2251 102.708L12.7033 91.8564L13.0387 102.75L0 102.791Z" fill="white"/>
<path d="M40.656 102.583L45.687 61.1383H68.4524L77.6341 102.583L62.1637 103L60.9478 95.2788H57.3842L56.336 102.791L40.656 102.583ZM56.5457 88.1835L60.7382 88.3922L59.8997 83.0082H57.1745L56.5457 88.1835Z" fill="white"/>
<path d="M89.5818 102.917C87.9327 102.917 86.2138 102.833 84.425 102.666C82.6362 102.527 81.2666 102.374 80.3163 102.207L78.8908 101.998L79.4359 88.9348L86.5632 89.1435C87.0104 88.9209 87.234 88.6426 87.234 88.3088C87.234 88.0027 87.0243 87.7105 86.6051 87.4323C86.5492 87.4045 86.4514 87.3488 86.3116 87.2653C80.3582 83.4256 77.3815 79.5997 77.3815 75.7878C77.3815 75.76 77.3815 75.7322 77.3815 75.7043C77.4095 74.4522 77.5912 73.2001 77.9266 71.9481C78.262 70.696 78.8489 69.416 79.6874 68.1083C80.5539 66.7727 81.616 65.6041 82.8737 64.6024C84.1315 63.5729 85.7666 62.7382 87.779 62.0982C89.8194 61.4583 92.0973 61.1383 94.6128 61.1383C96.7929 61.1383 98.7075 61.2218 100.357 61.3887C102.034 61.5278 103.152 61.667 103.711 61.8061L104.549 62.0565L104.717 76.9982C104.214 76.9425 103.655 76.9147 103.04 76.9147C100.161 76.9147 98.7075 77.6938 98.6796 79.2519C98.6796 79.6415 98.8892 80.0032 99.3084 80.3371C99.7277 80.671 100.245 80.9771 100.86 81.2553C101.503 81.5335 102.187 81.9092 102.914 82.3822C103.641 82.8274 104.312 83.3282 104.926 83.8847C105.569 84.4412 106.1 85.2063 106.52 86.1802C106.939 87.154 107.148 88.267 107.148 89.5191C107.148 89.5748 107.148 89.6304 107.148 89.6861C107.148 90.7434 106.981 91.8424 106.645 92.9832C106.31 94.0962 105.709 95.2509 104.843 96.4474C104.004 97.6716 102.942 98.7429 101.656 99.6611C100.398 100.607 98.7215 101.386 96.6252 101.998C94.5289 102.61 92.1811 102.917 89.5818 102.917Z" fill="white"/>
<path d="M118.446 102.917C116.797 102.917 115.078 102.833 113.29 102.666C111.501 102.527 110.131 102.374 109.181 102.207L107.755 101.998L108.3 88.9348L115.428 89.1435C115.875 88.9209 116.098 88.6426 116.098 88.3088C116.098 88.0027 115.889 87.7105 115.47 87.4323C115.414 87.4045 115.316 87.3488 115.176 87.2653C109.223 83.4256 106.246 79.5997 106.246 75.7878C106.246 75.76 106.246 75.7322 106.246 75.7043C106.274 74.4522 106.456 73.2001 106.791 71.9481C107.126 70.696 107.713 69.416 108.552 68.1083C109.418 66.7727 110.481 65.6041 111.738 64.6024C112.996 63.5729 114.631 62.7382 116.644 62.0982C118.684 61.4583 120.962 61.1383 123.477 61.1383C125.657 61.1383 127.572 61.2218 129.221 61.3887C130.898 61.5278 132.016 61.667 132.575 61.8061L133.414 62.0565L133.581 76.9982C133.078 76.9425 132.519 76.9147 131.904 76.9147C129.025 76.9147 127.572 77.6938 127.544 79.2519C127.544 79.6415 127.754 80.0032 128.173 80.3371C128.592 80.671 129.109 80.9771 129.724 81.2553C130.367 81.5335 131.052 81.9092 131.779 82.3822C132.505 82.8274 133.176 83.3282 133.791 83.8847C134.434 84.4412 134.965 85.2063 135.384 86.1802C135.803 87.154 136.013 88.267 136.013 89.5191C136.013 89.5748 136.013 89.6304 136.013 89.6861C136.013 90.7434 135.845 91.8424 135.51 92.9832C135.174 94.0962 134.574 95.2509 133.707 96.4474C132.869 97.6716 131.806 98.7429 130.521 99.6611C129.263 100.607 127.586 101.386 125.49 101.998C123.393 102.61 121.046 102.917 118.446 102.917Z" fill="white"/>
<path d="M136.625 61.0966L153.605 61.2635L154.234 102.917L136.667 102.708L136.625 61.0966Z" fill="white"/>
<path d="M154.845 61.3887L171.196 61.3053L174.005 72.0315L175.933 61.1383L191.026 61.2635L182.641 102.917L164.655 103L154.845 61.3887Z" fill="white"/>
<path d="M221 89.8947L220.12 102.917H192.03L191.652 61.1383H219.449L219.575 75.0366L212.405 75.2035L212.447 77.8329H218.484L218.82 87.5575L212.154 87.7244L212.112 89.7695L221 89.8947Z" fill="white"/>
</svg>
