<svg width="474" height="136" viewBox="0 0 474 136" fill="none" xmlns="http://www.w3.org/2000/svg">
<path d="M8.10249 0.11853H0.0888672V136H8.10249V0.11853Z" fill="white"/>
<path d="M132.538 0.11853H124.524V136H132.538V0.11853Z" fill="white"/>
<path d="M220.086 90.2588L206.382 134.802H216.677L219.39 125.255H233.163L235.876 134.802H246.728L233.024 90.2588H220.086ZM221.754 117.127L226.136 101.714H226.414L230.796 117.127H221.754Z" fill="white"/>
<path d="M262.31 107.016L253.545 90.2588H241.721L256.815 117.41V134.802H267.04V117.41L282.064 90.2588H271.003L262.31 107.016Z" fill="white"/>
<path d="M410.818 90.2588H400.243V134.802H432.588V125.325H410.818V90.2588Z" fill="white"/>
<path d="M184.544 110.408H183.778L179.675 90.2588H165.901V134.802H175.363V100.44H176.266L180.859 122.568H186.7L191.778 100.44H192.613V134.802H202.072V90.2588H188.441L184.544 110.408Z" fill="white"/>
<path d="M451.58 90.2303H437.81V134.773H451.58C458.259 134.773 463.613 132.794 467.651 128.833C471.684 124.805 473.703 119.36 473.703 112.5C473.703 105.64 471.684 100.199 467.651 96.2379C463.613 92.2094 458.259 90.2303 451.58 90.2303ZM450.814 126.217H448.381V98.7833H450.814C458.118 98.7833 462.778 103.874 462.778 112.429C462.778 120.985 458.118 126.217 450.814 126.217Z" fill="white"/>
<path d="M285.887 134.802H296.46V117.619H312.459V108.642H296.46V99.378H318.44V90.2588H285.887V134.802Z" fill="white"/>
<path d="M323.514 99.5195H334.783V125.538H323.514V134.802H356.554V125.538H345.357V99.5195H356.554V90.2588H323.514V99.5195Z" fill="white"/>
<path d="M371.999 116.56H387.511V107.58H371.999V99.378H393.979V90.2588H361.565V134.802H394.606V125.679H371.999V116.56Z" fill="white"/>
<path d="M337.231 60.6162H347.734V25.5464H361.647V16.0734H323.529V25.5464H337.231V60.6162Z" fill="white"/>
<path d="M303.908 61.4406C309.543 61.4406 314.133 59.3201 317.751 55.005C321.439 50.6932 323.247 45.1077 323.247 38.3183C323.247 31.5292 321.439 26.0169 317.751 21.7023C314.133 17.3904 309.543 15.1991 303.908 15.1991C298.273 15.1991 293.683 17.3904 289.995 21.7023C286.377 26.0141 284.569 31.5292 284.569 38.3183C284.569 45.1077 286.377 50.6904 289.995 55.005C293.683 59.3169 298.273 61.4406 303.908 61.4406ZM297.577 28.4234C299.176 25.949 301.265 24.675 303.908 24.675C306.551 24.675 308.638 25.949 310.17 28.4234C311.771 30.8979 312.535 34.1509 312.535 38.3212C312.535 42.4915 311.768 45.8154 310.17 48.2897C308.641 50.7639 306.551 51.9673 303.908 51.9673C301.265 51.9673 299.178 50.7639 297.577 48.2897C296.048 45.8154 295.282 42.4915 295.282 38.3212C295.282 34.1509 296.048 30.8979 297.577 28.4234Z" fill="white"/>
<path d="M195.806 54.6477C199.84 50.6188 201.859 45.1748 201.859 38.3148C201.859 31.4549 199.842 26.0134 195.806 22.0526C191.773 18.0239 186.417 16.0421 179.737 16.0421H165.964V60.5846H179.737C186.414 60.5846 191.77 58.6087 195.806 54.6477ZM176.537 52.0316V24.5978H178.972C186.275 24.5978 190.935 29.6883 190.935 38.244C190.935 46.7998 186.275 52.0316 178.972 52.0316H176.537Z" fill="white"/>
<path d="M256.818 44.7784H263.425C274.834 44.7784 281.44 39.5465 281.44 30.4273C281.44 21.3082 274.834 16.0734 263.425 16.0734H246.314V60.6162H256.818V44.7784ZM256.818 24.6999H263.01C268.505 24.6999 271.218 26.6081 271.218 30.4273C271.218 34.2466 268.505 36.1548 263.01 36.1548H256.818V24.6999Z" fill="white"/>
<path d="M240.19 51.4941H217.585V42.3749H233.096V33.3944H217.585V25.1925H239.564V16.0734H207.15V60.6162H240.19V51.4941Z" fill="white"/>
<path d="M87.1993 61.9805C89.1351 61.9805 90.7755 61.3095 92.0819 59.9871C93.3827 58.6622 94.0401 56.9949 94.0401 55.0298C94.0401 53.0651 93.3827 51.3946 92.0791 50.0697C90.7755 48.7477 89.1379 48.0767 87.2021 48.0767C85.2664 48.0767 83.6256 48.7477 82.3192 50.0697C81.0184 51.3946 80.3613 53.0623 80.3613 55.0298C80.3613 56.9977 81.0184 58.665 82.322 59.9871C83.6256 61.3095 85.2636 61.9805 87.1993 61.9805Z" fill="white"/>
<path d="M47.0626 61.9805C48.9984 61.9805 50.6387 61.3095 51.9452 59.9871C53.246 58.6622 53.9034 56.9949 53.9034 55.0298C53.9034 53.0651 53.246 51.3946 51.9424 50.0697C50.6387 48.7477 49.0012 48.0767 47.0654 48.0767C45.1296 48.0767 43.4889 48.7477 42.1824 50.0697C40.8816 51.3946 40.2246 53.0623 40.2246 55.0298C40.2246 56.9977 40.8816 58.665 42.1853 59.9871C43.4889 61.3095 45.1268 61.9805 47.0626 61.9805Z" fill="white"/>
</svg>
