<svg width="462" height="201" viewBox="0 0 462 201" fill="none" xmlns="http://www.w3.org/2000/svg">
<path d="M42.7287 0C35.2175 0 28.6985 0.511435 23.1713 1.53352C17.7859 2.55561 13.3915 4.1797 9.99017 6.40974C6.58886 8.63977 4.03995 11.5677 2.33929 15.1916C0.780357 18.7225 0 23.0442 0 28.1547C0 31.7784 0.28196 35.1223 0.84888 38.1886C1.4158 41.1619 2.33849 43.9044 3.614 46.4133C5.03122 48.8291 6.94509 51.0574 9.35435 53.1016C11.7636 55.0529 14.7397 56.8175 18.2828 58.3971C21.8258 59.8838 26.1462 61.2804 31.2482 62.5813C33.7991 63.3242 35.9978 64.1142 37.8402 64.9505C39.8243 65.7867 41.4533 66.669 42.7288 67.5982C44.0043 68.4345 44.9242 69.4095 45.491 70.5246C46.1997 71.5465 46.6981 72.7071 46.9815 74.0079C47.4067 75.3088 47.6174 76.7504 47.6174 78.33C47.6174 79.6309 47.4751 80.7464 47.1916 81.6756C46.9082 82.6053 46.4125 83.3465 45.704 83.9041C45.1371 84.4612 44.3596 84.8799 43.3676 85.159C42.3756 85.4381 41.1708 85.5788 39.7536 85.5788C37.6278 85.5788 35.9959 85.2975 34.8621 84.7403C33.7284 84.0898 32.8796 83.1149 32.3127 81.814C31.8875 80.4203 31.674 78.6079 31.674 76.3779V73.1729C31.674 71.965 31.7451 70.664 31.887 69.2702C30.6114 69.3581 28.9824 69.4109 26.9983 69.4109H20.8322C17.0057 69.4109 13.3204 69.3669 9.77734 69.2702C6.37603 69.1823 3.3287 69.0394 0.635995 68.8537C0.635995 70.3404 0.567774 71.7791 0.425935 73.1728C0.283661 74.4737 0.21294 75.8225 0.21294 77.2163V81.2568C0.21294 84.8806 0.566035 88.0867 1.27465 90.8743C2.12496 93.6618 3.47209 96.1234 5.31447 98.2604C7.29857 100.305 9.9187 102.024 13.1783 103.418C16.4379 104.719 20.4792 105.694 25.2977 106.344C30.2579 106.995 36.139 107.321 42.9416 107.321C49.1774 107.321 54.7053 106.95 59.5239 106.207C64.3424 105.557 68.3808 104.486 71.6404 102.999C75.0417 101.513 77.7331 99.6554 79.7171 97.4254C81.843 95.1024 83.3325 92.4076 84.1828 89.3414C85.1748 86.1821 85.6704 82.5573 85.6704 78.4688C85.6704 73.6371 85.0325 69.4559 83.757 65.925C82.6231 62.3013 80.7805 59.1908 78.2296 56.5891C75.8203 53.9873 72.6305 51.7084 68.6623 49.7571C64.6941 47.7129 59.8782 45.8556 54.2094 44.183C51.375 43.2544 48.9656 42.3238 46.9815 41.3946C44.9973 40.4649 43.3654 39.5382 42.0899 38.6089C40.9561 37.5869 40.0363 36.5163 39.3277 35.4012C38.6191 34.2861 38.1236 33.1257 37.8401 31.9178C37.6978 30.7099 37.6271 29.3639 37.6271 27.8772C37.6271 26.7622 37.6983 25.7843 37.8401 24.948C38.1235 24.1118 38.5478 23.4149 39.1147 22.8574C39.8234 22.2999 40.6749 21.8841 41.667 21.6053C42.659 21.3265 43.7925 21.1861 45.068 21.1861C46.4852 21.1861 47.6899 21.3716 48.682 21.7432C49.8157 22.022 50.6644 22.4857 51.2313 23.1361C51.9399 23.7865 52.4354 24.6238 52.7189 25.6459C53.1441 26.575 53.3577 27.7835 53.3577 29.2701C53.3577 30.571 53.2865 31.8719 53.1447 33.1728V37.3541H71.6403C74.0496 37.3541 76.3166 37.398 78.4424 37.4914C80.71 37.5793 82.6238 37.6772 84.1827 37.7706C84.325 36.3768 84.3957 35.0308 84.3957 33.73V29.8273C84.538 28.6193 84.6087 27.4589 84.6087 26.3438C84.6087 22.4412 84.1814 19.0496 83.3311 16.1691C82.6225 13.1958 81.2783 10.6865 79.2942 8.64231C77.4518 6.59811 74.9 4.92618 71.6404 3.62533C68.5226 2.32447 64.5524 1.3944 59.7339 0.836891C55.0571 0.279415 49.3897 0 42.7287 0ZM89.7821 1.39283C89.9244 6.50334 90.0663 11.8479 90.208 17.423C90.3502 22.9051 90.421 29.4072 90.421 36.9336C90.421 40.2787 90.3498 44.1817 90.208 48.6417V75.6822C90.208 80.1423 90.6323 84.0902 91.4826 87.5282C92.4746 90.9662 94.0354 93.9391 96.1612 96.4479C98.287 98.8637 101.121 100.909 104.664 102.582C108.349 104.162 112.811 105.322 118.055 106.065C123.299 106.902 129.536 107.32 136.764 107.32C144.133 107.32 150.439 106.902 155.682 106.065C160.926 105.322 165.32 104.162 168.863 102.582C172.406 100.909 175.24 98.8637 177.366 96.4479C179.492 93.9391 180.981 90.9662 181.832 87.5282C182.824 84.0902 183.319 80.1423 183.319 75.6822V62.2999C183.319 57.561 183.248 53.0089 183.106 48.6417V36.9336C183.106 29.4072 183.177 22.9051 183.319 17.423C183.462 11.8479 183.603 6.50334 183.745 1.39283H145.053V24.252C145.196 28.4333 145.266 32.6145 145.266 36.7959C145.408 40.9771 145.479 45.1105 145.479 49.1989V70.9438C145.479 72.8021 145.194 74.3335 144.627 75.5415C144.202 76.7494 143.425 77.6317 142.291 78.1892C141.157 78.7464 139.668 79.0276 137.825 79.0276C135.841 79.0276 134.212 78.7464 132.937 78.1892C131.803 77.6321 130.951 76.7494 130.384 75.5415C129.818 74.3335 129.536 72.8021 129.536 70.9438V49.1989C129.678 45.1105 129.749 40.9771 129.749 36.7959C129.891 32.6145 129.962 28.4782 129.962 24.3898V12.2653C130.104 8.36273 130.175 4.73789 130.175 1.39283H89.7821ZM191.045 1.39283C191.187 8.73338 191.258 16.5394 191.258 24.8091C191.4 32.9859 191.471 42.6015 191.471 53.6587C191.471 61.0922 191.4 67.8304 191.258 73.8701V90.5952C191.258 95.7986 191.187 100.91 191.045 105.928H230.586C230.019 100.91 229.594 95.1017 229.311 88.5046C229.25 87.056 229.228 85.2715 229.173 83.7662H237.814C244.616 83.7662 250.497 83.3925 255.458 82.6491C260.418 81.8128 264.528 80.4669 267.787 78.6085C271.047 76.7501 273.599 74.196 275.441 70.9438C277.425 67.6917 278.769 63.6481 279.478 58.8165C280.328 53.8918 280.755 47.9909 280.755 41.1149C280.755 32.9381 279.975 26.2477 278.416 21.0443C276.999 15.7479 274.661 11.7072 271.401 8.91966C268.283 6.03919 264.174 4.08914 259.072 3.06704C254.111 1.95202 248.088 1.39283 241.002 1.39283H191.045ZM285.293 1.39283V12.4031C285.435 16.2128 285.506 20.2563 285.506 24.5305C285.648 28.7118 285.716 33.219 285.716 38.0508V53.6587C285.716 61.0922 285.648 67.8754 285.506 74.0079C285.506 80.0477 285.435 85.6704 285.293 90.8738V105.928H360.547C360.405 103.883 360.334 101.512 360.334 98.817V82.7898C360.334 80.0023 360.405 77.6784 360.547 75.8201C357.713 75.8201 354.805 75.864 351.829 75.9607H342.9C340.066 75.9607 337.232 76.0047 334.398 76.0992H323.982V63.4174H328.235C331.069 63.4174 333.831 63.4614 336.524 63.5559C339.217 63.5559 341.84 63.5998 344.391 63.6965H352.042C354.593 63.6965 356.931 63.7406 359.057 63.834V47.3873C359.057 44.414 359.128 41.9525 359.27 40.0013C357.002 40.0892 354.593 40.187 352.042 40.2804H344.391C341.84 40.2804 339.217 40.3243 336.524 40.421H323.982V28.2936H326.108C328.659 28.2936 331.279 28.3376 333.972 28.4343H342.69C345.667 28.4343 348.643 28.4782 351.619 28.5716H360.547C360.405 26.8991 360.263 24.7636 360.121 22.1619V7.52741C360.264 5.11154 360.406 3.06586 360.547 1.39334L285.293 1.39283ZM366.995 1.39283C367.279 8.91921 367.421 16.7701 367.421 24.9469V73.8701C367.421 79.8169 367.35 85.3918 367.208 90.5952C367.208 95.7986 367.137 100.91 366.995 105.928H406.536C405.969 101.189 405.545 95.5182 405.261 88.921C405.035 83.5934 404.888 77.6418 404.752 71.6072C405.163 71.5522 405.572 71.4973 405.9 71.4973H410.363C411.638 71.4973 412.772 71.683 413.764 72.0544C414.756 72.4258 415.536 73.1226 416.103 74.1451C416.812 75.1671 417.378 76.6985 417.804 78.7427C418.37 80.7869 418.866 83.5295 419.291 86.9675C419.716 90.3125 420.141 94.4459 420.566 99.3706C420.849 101.043 421.205 102.392 421.63 103.414C422.197 104.344 422.907 104.992 423.757 105.364C424.749 105.735 426.093 105.924 427.794 105.924H461.594C461.311 104.159 460.886 101.973 460.319 99.371C459.894 96.6763 459.47 93.9366 459.045 91.1491C458.62 88.2687 458.195 85.6218 457.77 83.2059C457.061 79.0246 455.857 75.6778 454.156 73.169C452.597 70.6603 450.398 68.7551 447.564 67.4543C444.73 66.0605 441.044 65.1333 436.509 64.6687C435.869 64.5917 435.066 64.5313 434.386 64.4566V63.3598C435.807 63.1939 437.356 63.073 438.636 62.8576C443.596 61.928 447.495 60.3464 450.329 58.1163C453.305 55.7934 455.43 52.5423 456.705 48.3609C458.123 44.0867 458.832 38.6523 458.832 32.0551C458.832 25.9226 457.98 20.8562 456.28 16.8607C454.721 12.8653 452.243 9.75476 448.842 7.52473C445.582 5.20177 441.401 3.61967 436.299 2.78341C431.339 1.85417 425.526 1.39065 418.865 1.39065L366.995 1.39283ZM410.789 22.997C412.631 22.997 414.189 23.1824 415.464 23.5542C416.74 23.9258 417.734 24.6228 418.443 25.6448C419.293 26.6669 419.931 28.1534 420.356 30.1046C420.781 32.0559 420.992 34.5651 420.992 37.6314C420.992 41.534 420.639 44.5996 419.93 46.8296C419.363 48.9668 418.369 50.5011 416.952 51.4302C415.676 52.2665 413.837 52.6852 411.428 52.6852C410.436 52.5972 409.513 52.5445 408.662 52.5445H404.372C404.314 49.1749 404.258 45.9876 404.2 42.5106V23.2441C404.937 23.1891 405.669 23.1352 406.323 23.1352H408.875C409.726 23.0418 410.364 22.997 410.789 22.997ZM231.011 23.4134H233.135C235.119 23.4134 236.822 23.6467 238.239 24.1112C239.798 24.5758 241.003 25.5059 241.853 26.8997C242.845 28.2006 243.552 30.1507 243.977 32.7524C244.402 35.3541 244.616 38.8384 244.616 43.2055C244.616 47.1081 244.402 50.3143 243.977 52.8231C243.693 55.2389 243.127 57.1441 242.276 58.5379C241.426 59.8388 240.221 60.7687 238.662 61.3262C237.103 61.7911 235.121 62.0207 232.712 62.0207H229.098C228.964 61.9878 228.779 61.9988 228.632 61.9768C228.538 55.422 228.459 48.7793 228.459 41.6706V23.5413C229.365 23.4622 230.227 23.4134 231.011 23.4134ZM196.846 111.51C191.443 111.51 186.754 111.933 182.778 112.782C178.904 113.631 175.744 114.982 173.297 116.834C170.851 118.686 169.014 121.116 167.79 124.126C166.669 127.058 166.11 130.648 166.11 134.892C166.11 137.902 166.312 140.679 166.72 143.226C167.128 145.695 167.791 147.971 168.708 150.055C169.728 152.061 171.104 153.914 172.837 155.612C174.57 157.232 176.711 158.696 179.259 160.008C181.808 161.243 184.918 162.4 188.588 163.48C190.423 164.098 192.004 164.756 193.33 165.45C194.757 166.145 195.928 166.878 196.846 167.65C197.763 168.345 198.426 169.154 198.834 170.08C199.344 170.929 199.7 171.894 199.904 172.974C200.21 174.055 200.365 175.249 200.365 176.561C200.365 177.641 200.26 178.566 200.057 179.338C199.853 180.11 199.496 180.727 198.986 181.19C198.579 181.653 198.02 182.001 197.306 182.233C196.593 182.465 195.724 182.581 194.705 182.581C193.176 182.581 192.004 182.349 191.189 181.886C190.373 181.346 189.761 180.537 189.353 179.457C189.047 178.299 188.896 176.794 188.896 174.942V172.28C188.896 171.277 188.946 170.195 189.048 169.038C188.131 169.115 186.956 169.153 185.529 169.153H181.095C178.343 169.153 175.694 169.12 173.145 169.038C170.698 168.961 168.504 168.844 166.567 168.691C166.567 169.925 166.516 171.123 166.415 172.28C166.313 173.36 166.262 174.48 166.262 175.637V178.994C166.262 182.004 166.518 184.666 167.028 186.981C167.639 189.296 168.606 191.34 169.931 193.115C171.358 194.812 173.246 196.239 175.591 197.397C177.936 198.477 180.84 199.289 184.306 199.829C187.874 200.368 192.105 200.639 196.998 200.639C201.484 200.639 205.462 200.329 208.928 199.711C212.394 199.172 215.299 198.284 217.643 197.049C220.09 195.815 222.028 194.272 223.456 192.42C224.985 190.491 226.055 188.252 226.667 185.706C227.38 183.082 227.737 180.072 227.737 176.677C227.737 172.664 227.276 169.194 226.359 166.261C225.543 163.252 224.22 160.665 222.385 158.505C220.652 156.344 218.357 154.453 215.503 152.833C212.648 151.135 209.182 149.593 205.104 148.204C203.065 147.432 201.332 146.661 199.904 145.889C198.477 145.118 197.306 144.346 196.388 143.574C195.573 142.725 194.91 141.838 194.4 140.912C193.89 139.986 193.534 139.021 193.33 138.018C193.228 137.014 193.177 135.895 193.177 134.661C193.177 133.734 193.228 132.925 193.33 132.231C193.533 131.536 193.84 130.957 194.247 130.494C194.757 130.031 195.367 129.683 196.08 129.451C196.794 129.219 197.611 129.104 198.529 129.104C199.548 129.104 200.414 129.26 201.127 129.568C201.943 129.8 202.555 130.186 202.963 130.726C203.473 131.265 203.829 131.959 204.033 132.808C204.339 133.579 204.491 134.583 204.491 135.817C204.491 136.897 204.44 137.979 204.338 139.059V142.531H217.643C219.376 142.531 221.008 142.564 222.538 142.646C224.169 142.723 225.545 142.801 226.667 142.879C226.768 141.721 226.819 140.602 226.819 139.522V136.279C226.921 135.276 226.972 134.314 226.972 133.388C226.972 130.147 226.665 127.328 226.054 124.936C225.544 122.467 224.575 120.385 223.148 118.687C221.822 116.989 219.988 115.6 217.643 114.52C215.4 113.44 212.546 112.669 209.08 112.205C205.716 111.743 201.637 111.51 196.846 111.51ZM263.097 111.51C257.694 111.51 253.005 111.933 249.029 112.782C245.155 113.631 241.992 114.982 239.546 116.834C237.099 118.686 235.265 121.116 234.041 124.126C232.92 127.058 232.361 130.648 232.361 134.892C232.361 137.902 232.563 140.679 232.971 143.226C233.379 145.695 234.042 147.971 234.959 150.055C235.979 152.061 237.355 153.914 239.088 155.612C240.821 157.232 242.962 158.696 245.51 160.008C248.059 161.243 251.169 162.4 254.839 163.48C256.674 164.098 258.256 164.756 259.581 165.45C261.008 166.145 262.179 166.878 263.097 167.65C264.014 168.345 264.677 169.154 265.085 170.08C265.595 170.929 265.952 171.894 266.156 172.974C266.461 174.055 266.613 175.249 266.613 176.561C266.613 177.641 266.511 178.566 266.308 179.338C266.104 180.11 265.747 180.727 265.238 181.19C264.83 181.653 264.268 182.001 263.554 182.233C262.841 182.465 261.976 182.581 260.956 182.581C259.427 182.581 258.256 182.349 257.44 181.886C256.624 181.346 256.012 180.537 255.604 179.457C255.298 178.299 255.144 176.794 255.144 174.942V172.28C255.144 171.277 255.195 170.195 255.296 169.038C254.379 169.115 253.207 169.153 251.78 169.153H247.346C244.594 169.153 241.942 169.12 239.393 169.038C236.946 168.961 234.755 168.844 232.818 168.691C232.818 169.925 232.768 171.123 232.666 172.28C232.564 173.36 232.513 174.48 232.513 175.637V178.994C232.513 182.004 232.766 184.666 233.276 186.981C233.887 189.296 234.857 191.34 236.182 193.115C237.609 194.812 239.497 196.239 241.842 197.397C244.187 198.477 247.091 199.289 250.557 199.829C254.125 200.368 258.356 200.639 263.249 200.639C267.735 200.639 271.71 200.329 275.176 199.711C278.642 199.172 281.55 198.284 283.894 197.049C286.341 195.815 288.276 194.272 289.704 192.42C291.233 190.491 292.303 188.252 292.915 185.706C293.629 183.082 293.985 180.072 293.985 176.677C293.985 172.664 293.527 169.194 292.61 166.261C291.794 163.252 290.468 160.665 288.633 158.505C286.9 156.344 284.608 154.453 281.754 152.833C278.899 151.135 275.433 149.593 271.355 148.204C269.316 147.432 267.583 146.661 266.155 145.889C264.728 145.118 263.557 144.346 262.639 143.574C261.824 142.725 261.161 141.838 260.651 140.912C260.141 139.986 259.785 139.021 259.581 138.018C259.479 137.014 259.425 135.895 259.425 134.661C259.425 133.734 259.479 132.925 259.581 132.231C259.784 131.536 260.088 130.957 260.496 130.494C261.005 130.031 261.618 129.683 262.331 129.451C263.045 129.219 263.863 129.104 264.78 129.104C265.799 129.104 266.665 129.26 267.378 129.568C268.194 129.8 268.806 130.186 269.214 130.726C269.724 131.265 270.08 131.959 270.284 132.808C270.59 133.579 270.742 134.583 270.742 135.817C270.742 136.897 270.691 137.979 270.589 139.059V142.531H283.894C285.627 142.531 287.257 142.564 288.786 142.646C290.417 142.723 291.793 142.801 292.915 142.879C293.016 141.721 293.07 140.602 293.07 139.522V136.279C293.172 135.276 293.223 134.314 293.223 133.388C293.223 130.147 292.916 127.328 292.305 124.936C291.795 122.467 290.826 120.385 289.399 118.687C288.073 116.989 286.239 115.6 283.894 114.52C281.651 113.44 278.797 112.669 275.331 112.205C271.967 111.743 267.888 111.51 263.097 111.51ZM0.578344 112.668C0.578344 118.378 0.629183 124.667 0.730807 131.535C0.832432 138.326 0.883216 146.468 0.883216 155.959C0.883216 165.142 0.832432 173.127 0.730807 179.918C0.629183 186.709 0.527684 193.23 0.425769 199.481H24.2791C24.2791 196.934 24.2282 194.542 24.1266 192.304C24.025 189.989 23.9235 187.751 23.8216 185.59C23.8216 183.352 23.7708 181.076 23.6692 178.761V171.237C23.6692 168.613 23.5676 165.951 23.3642 163.251C23.2626 160.473 23.1076 157.654 22.9038 154.799C22.7862 153.142 22.723 151.444 22.6391 149.762L23.3269 149.685C23.5925 151.083 23.8842 152.44 24.1268 153.872C24.7384 156.882 25.3002 159.738 25.81 162.439C26.4217 165.139 26.9835 167.416 27.4933 169.268C27.7992 170.965 28.2064 172.818 28.7161 174.824C29.2258 176.754 29.7342 178.757 30.244 180.841C30.8556 182.924 31.4682 185.047 32.0798 187.207C32.6914 189.291 33.2532 191.376 33.763 193.459C34.3746 195.543 34.883 197.549 35.2909 199.478H46.76C47.2697 197.626 47.7781 195.698 48.2879 193.692L49.8186 187.44C50.4303 185.356 50.9894 183.272 51.499 181.188C52.1107 179.105 52.622 177.098 53.0298 175.169C53.5395 173.163 53.9974 171.272 54.4052 169.497C54.813 167.722 55.2737 165.562 55.7835 163.016C56.3952 160.469 56.9542 157.729 57.4639 154.797C57.8103 153.093 58.1027 151.43 58.4162 149.751L59.2104 149.839C59.0199 153.371 58.804 156.883 58.5341 160.355C58.3303 164.214 58.2291 167.803 58.2291 171.122C58.2291 173.822 58.1783 176.331 58.0767 178.645C57.9751 180.961 57.8708 183.237 57.7688 185.475C57.7688 187.635 57.7179 189.874 57.6163 192.189C57.5147 194.427 57.4639 196.856 57.4639 199.48H84.5312C84.3274 193.23 84.2262 186.709 84.2262 179.918V131.534C84.3278 124.667 84.4293 118.377 84.5312 112.667H51.6545C51.4507 114.519 51.1445 116.485 50.7367 118.569C50.3289 120.652 49.8682 122.853 49.3585 125.168C48.9507 127.483 48.4928 129.875 47.9831 132.344L46.4552 139.753C46.2512 141.683 45.9957 143.918 45.6899 146.465C45.384 149.011 45.0273 151.635 44.6195 154.336C44.4946 155.167 44.4072 155.857 44.2915 156.651H43.5147C43.4116 155.89 43.3651 155.255 43.2442 154.454C42.9383 151.753 42.6321 149.129 42.3264 146.582C42.1225 143.959 41.8669 141.683 41.561 139.753L40.0331 132.344C39.5234 129.875 39.0626 127.483 38.6548 125.168C38.247 122.853 37.8397 120.652 37.4319 118.569C37.0241 116.408 36.6674 114.442 36.3615 112.667L0.578344 112.668ZM102.612 112.668C102.408 114.211 102.102 116.562 101.694 119.726C101.287 122.813 100.775 126.481 100.164 130.725C99.654 134.969 99.0446 139.559 98.3309 144.498C97.6173 149.36 96.8503 154.376 96.0347 159.546C95.321 164.639 94.5571 169.655 93.7415 174.594C93.0279 179.533 92.3144 184.123 91.6007 188.367C90.887 192.611 90.2241 196.317 89.6125 199.481H117.598C117.598 197.474 117.699 194.812 117.903 191.494C118.057 188.922 118.268 185.872 118.481 182.813H131.38C131.418 183.4 131.478 184.094 131.512 184.665C131.716 187.983 131.82 190.915 131.82 193.461C131.922 196.008 132.023 198.014 132.125 199.481H162.861C162.25 196.317 161.536 192.611 160.72 188.367C160.007 184.046 159.243 179.456 158.427 174.594C157.714 169.655 156.95 164.639 156.134 159.546C155.318 154.376 154.504 149.36 153.688 144.498C152.974 139.559 152.312 134.969 151.7 130.725C151.088 126.481 150.526 122.813 150.017 119.726C149.609 116.64 149.303 114.288 149.099 112.668H102.612ZM300.292 112.668C300.394 115.677 300.445 118.762 300.445 121.926V131.997C300.547 135.47 300.597 139.213 300.597 143.226V169.037C300.597 172.973 300.547 176.678 300.445 180.151V190.219C300.445 193.383 300.394 196.471 300.292 199.481H329.653C329.653 196.471 329.602 193.383 329.501 190.219C329.501 186.978 329.45 183.623 329.348 180.151V131.882C329.45 128.41 329.501 125.09 329.501 121.926C329.602 118.762 329.653 115.677 329.653 112.668H300.292ZM334.582 112.668C335.092 115.677 335.654 119.304 336.265 123.549L338.253 137.089C339.069 141.951 339.783 146.967 340.394 152.137C341.108 157.23 341.771 162.287 342.382 167.303C343.096 172.241 343.756 176.869 344.368 181.19C344.979 185.435 345.491 189.14 345.899 192.304C346.306 195.468 346.613 197.86 346.816 199.481C348.448 199.404 351.046 199.365 354.614 199.365C358.182 199.288 362.974 199.248 368.989 199.248C371.946 199.248 374.749 199.292 377.4 199.365C380.152 199.365 382.65 199.398 384.892 199.481H390.705C390.909 197.706 391.265 194.887 391.775 191.029C392.387 187.093 393.05 182.504 393.763 177.256C394.477 171.932 395.241 166.298 396.057 160.356C396.872 154.337 397.687 148.396 398.502 142.531C399.318 136.589 400.082 131.034 400.796 125.863C401.611 120.693 402.325 116.294 402.936 112.668H375.412C375.412 114.134 375.31 116.216 375.107 118.916C375.005 121.54 374.8 124.628 374.494 128.178C374.29 131.65 374.034 135.394 373.728 139.406C373.422 143.342 373.066 147.355 372.658 151.445C372.25 155.535 371.843 159.507 371.435 163.365C371.129 165.68 370.823 168.151 370.517 170.775C370.314 173.398 370.111 175.906 369.907 178.298C369.893 178.475 369.877 178.587 369.861 178.761H368.727C368.71 178.628 368.701 178.549 368.684 178.414C368.48 175.944 368.224 173.399 367.918 170.775C367.714 168.151 367.459 165.643 367.153 163.251C366.847 160.087 366.541 156.808 366.235 153.412C365.929 150.017 365.676 146.659 365.473 143.341C365.269 139.946 365.064 136.704 364.86 133.617C364.656 130.531 364.451 127.637 364.247 124.936C364.145 122.235 364.044 119.843 363.942 117.76C363.84 115.676 363.789 113.98 363.789 112.668L334.582 112.668ZM407.868 112.668V121.811C407.97 124.975 408.021 128.333 408.021 131.882C408.122 135.355 408.173 139.095 408.173 143.108V156.074C408.173 162.247 408.122 167.881 408.021 172.974C408.021 177.99 407.97 182.658 407.868 186.98V199.481H462C461.898 197.783 461.847 195.814 461.847 193.576V180.266C461.847 177.951 461.898 176.022 462 174.479C459.961 174.479 457.871 174.512 455.73 174.595H449.308C447.269 174.595 445.23 174.627 443.191 174.709H435.698V164.175H438.757C440.796 164.175 442.784 164.219 444.721 164.293C446.658 164.293 448.543 164.326 450.378 164.407H455.883C457.718 164.407 459.4 164.44 460.93 164.523V150.865C460.93 148.395 460.98 146.351 461.082 144.73C459.451 144.807 457.718 144.883 455.883 144.96H450.378C448.543 144.96 446.658 145.004 444.721 145.078H435.698V135.007H437.229C439.064 135.007 440.949 135.04 442.886 135.121H449.155C451.296 135.121 453.437 135.165 455.578 135.238H462C461.898 133.849 461.797 132.072 461.695 129.911V117.758C461.797 115.752 461.898 114.056 462 112.667L407.868 112.668ZM124.572 124.358H125.611C125.642 124.677 125.672 124.828 125.703 125.168C125.906 127.406 126.109 129.682 126.313 131.997C126.618 134.312 126.975 136.397 127.383 138.249C127.791 141.876 128.201 145.732 128.609 149.822C129.118 153.835 129.526 157.886 129.831 161.976C129.914 162.81 129.943 163.583 130.018 164.408H120.351C120.217 164.402 120.073 164.404 119.939 164.399C120.3 160.312 120.678 156.224 121.113 152.137C121.725 147.275 122.286 142.648 122.796 138.249C123.102 136.397 123.408 134.312 123.714 131.997C124.02 129.605 124.276 127.329 124.479 125.168C124.526 124.84 124.532 124.669 124.572 124.358Z" fill="#FEFEFE"/>
</svg>
